<svg width="1728" height="1041" viewBox="0 0 1728 1041" fill="none" xmlns="http://www.w3.org/2000/svg">
<g clip-path="url(#clip0_2_2)">
<rect width="1728" height="1041" fill="black"/>
<path opacity="0.0144928" d="M1771.07 1519.4L2003.38 1302.91C2007.77 1298.82 2010.1 1293.01 2009.83 1286.83L1990.11 845.741C1989.89 840.697 1987.94 835.729 1984.57 831.623L1722.31 511.452C1716.81 504.738 1708.23 501.164 1699.91 502.121L1403.62 536.227C1395.3 537.184 1388.56 542.521 1386.02 550.162L1264.69 914.487C1263.14 919.158 1263.28 924.334 1265.09 929.195L1423.74 1354.3C1425.96 1360.25 1430.51 1365.26 1436.35 1368.18L1744.99 1522.4C1753.94 1526.87 1764.34 1525.68 1771.07 1519.4Z" stroke="url(#paint0_linear_2_2)" stroke-width="4"/>
<path opacity="0.0289855" d="M1717.18 1517.87L1961.22 1315.08C1965.88 1311.21 1968.57 1305.49 1968.66 1299.27L1974.72 863.505C1974.79 858.395 1973.1 853.277 1969.92 848.977L1727.47 521.023C1722.36 514.102 1714.04 510.158 1705.73 510.712L1408.45 530.549C1400.14 531.104 1393.14 536.07 1390.14 543.533L1248.15 897.14C1246.28 901.776 1246.12 907.018 1247.68 912.019L1380.82 1338.5C1382.72 1344.59 1387.02 1349.83 1392.73 1353.02L1691.2 1519.6C1699.81 1524.41 1710.14 1523.72 1717.18 1517.87Z" stroke="url(#paint1_linear_2_2)" stroke-width="4"/>
<path opacity="0.0434783" d="M1663.59 1514.85L1918.46 1326.2C1923.38 1322.56 1926.42 1316.96 1926.88 1310.72L1958.2 881.442C1958.58 876.288 1957.16 871.037 1954.19 866.554L1731.87 531.849C1727.14 524.739 1719.1 520.441 1710.81 520.599L1413.42 526.257C1405.13 526.414 1397.88 531.003 1394.44 538.268L1232.55 880.283C1230.39 884.863 1229.91 890.15 1231.2 895.273L1338.96 1321.91C1340.53 1328.11 1344.56 1333.57 1350.11 1337.01L1637.75 1515.34C1646.02 1520.47 1656.26 1520.27 1663.59 1514.85Z" stroke="url(#paint2_linear_2_2)" stroke-width="4"/>
<path opacity="0.057971" d="M1610.38 1510.38L1875.18 1336.26C1880.33 1332.86 1883.73 1327.4 1884.56 1321.16L1940.57 899.495C1941.26 894.317 1940.13 888.953 1937.37 884.302L1735.41 543.875C1731.09 536.597 1723.34 531.961 1715.09 531.728L1418.43 523.339C1410.18 523.106 1402.7 527.311 1398.83 534.358L1217.88 863.956C1215.41 868.459 1214.61 873.769 1215.63 878.995L1298.2 1304.58C1299.42 1310.88 1303.17 1316.54 1308.55 1320.23L1584.73 1509.65C1592.65 1515.08 1602.79 1515.37 1610.38 1510.38Z" stroke="url(#paint3_linear_2_2)" stroke-width="4"/>
<path opacity="0.0724638" d="M1557.65 1504.5L1831.42 1345.23C1836.81 1342.1 1840.55 1336.8 1841.75 1330.59L1921.81 917.605C1922.81 912.426 1921.98 906.97 1919.46 902.166L1738.04 557.046C1734.13 549.618 1726.68 544.66 1718.48 544.041L1423.42 521.782C1415.22 521.163 1407.53 524.978 1403.24 531.788L1204.1 848.199C1201.32 852.604 1200.2 857.912 1200.93 863.222L1258.57 1286.59C1259.44 1292.96 1262.88 1298.8 1268.08 1302.73L1532.23 1502.58C1539.79 1508.3 1549.82 1509.05 1557.65 1504.5Z" stroke="url(#paint4_linear_2_2)" stroke-width="4"/>
<path opacity="0.0869565" d="M1505.48 1497.24L1787.27 1353.12C1792.87 1350.26 1796.94 1345.14 1798.52 1338.98L1901.93 935.714C1903.25 930.558 1902.73 925.034 1900.45 920.094L1739.68 571.3C1736.2 563.742 1729.05 558.477 1720.92 557.479L1428.28 521.566C1420.15 520.568 1412.26 523.988 1407.57 530.543L1191.16 833.048C1188.09 837.333 1186.64 842.616 1187.07 847.986L1220.12 1268C1220.63 1274.41 1223.75 1280.42 1228.75 1284.58L1480.31 1494.15C1487.51 1500.15 1497.42 1501.37 1505.48 1497.24Z" stroke="url(#paint5_linear_2_2)" stroke-width="4"/>
<path opacity="0.101449" d="M1453.95 1488.66L1742.79 1359.92C1748.58 1357.34 1752.98 1352.42 1754.93 1346.34L1880.93 953.767C1882.57 948.658 1882.36 943.09 1880.35 938.031L1740.29 586.576C1737.23 578.907 1730.4 573.35 1722.35 571.979L1432.96 522.671C1424.91 521.299 1416.84 524.317 1411.76 530.601L1179.02 818.537C1175.67 822.681 1173.9 827.912 1174.01 833.32L1182.87 1248.87C1183.01 1255.3 1185.8 1261.45 1190.58 1265.83L1429.07 1484.43C1435.91 1490.69 1445.68 1492.35 1453.95 1488.66Z" stroke="url(#paint6_linear_2_2)" stroke-width="4"/>
<path opacity="0.115942" d="M1403.14 1478.82L1698.04 1365.62C1704.01 1363.34 1708.72 1358.64 1711.03 1352.66L1858.82 971.708C1860.78 966.671 1860.89 961.083 1859.15 955.926L1739.79 602.809C1737.17 595.048 1730.67 589.215 1722.71 587.474L1437.37 525.071C1429.41 523.331 1421.18 525.942 1415.73 531.937L1167.65 804.696C1164.03 808.679 1161.93 813.835 1161.73 819.256L1146.85 1229.27C1146.62 1235.7 1149.07 1241.97 1153.62 1246.56L1378.58 1473.45C1385.04 1479.96 1394.67 1482.07 1403.14 1478.82Z" stroke="url(#paint7_linear_2_2)" stroke-width="4"/>
<path opacity="0.130435" d="M1353.12 1467.75L1653.1 1370.24C1659.22 1368.25 1664.22 1363.79 1666.9 1357.94L1835.62 989.484C1837.88 984.543 1838.32 978.96 1836.86 973.726L1738.14 619.932C1735.95 612.099 1729.79 606.003 1721.94 603.898L1441.44 528.738C1433.58 526.633 1425.2 528.833 1419.39 534.524L1156.99 791.555C1153.11 795.358 1150.7 800.413 1150.19 805.823L1112.08 1209.28C1111.47 1215.68 1113.58 1222.05 1117.88 1226.83L1328.92 1461.26C1334.99 1468.02 1344.48 1470.56 1353.12 1467.75Z" stroke="url(#paint8_linear_2_2)" stroke-width="4"/>
<path opacity="0.144928" d="M1303.96 1455.52L1608.02 1373.76C1614.27 1372.08 1619.56 1367.88 1622.58 1362.18L1811.34 1007.04C1813.91 1002.22 1814.67 996.67 1813.5 991.379L1735.29 637.877C1733.54 629.991 1727.73 623.645 1719.99 621.181L1445.08 533.638C1437.34 531.174 1428.83 532.957 1422.68 538.329L1147.01 779.14C1142.89 782.744 1140.17 787.673 1139.34 793.048L1078.58 1188.95C1077.6 1195.3 1079.35 1201.74 1083.4 1206.7L1280.14 1447.94C1285.83 1454.92 1295.16 1457.89 1303.96 1455.52Z" stroke="url(#paint9_linear_2_2)" stroke-width="4"/>
<path opacity="0.15942" d="M1255.74 1442.2L1562.87 1376.21C1569.24 1374.84 1574.78 1370.92 1578.15 1365.39L1786.01 1024.33C1788.86 1019.65 1789.94 1014.16 1789.07 1008.83L1731.19 656.572C1729.89 648.652 1724.43 642.07 1716.82 639.251L1448.24 539.738C1440.63 536.919 1432 538.279 1425.53 543.319L1137.66 767.474C1133.3 770.863 1130.29 775.643 1129.15 780.958L1046.35 1168.35C1045.01 1174.63 1046.4 1181.12 1050.18 1186.25L1232.32 1433.52C1237.62 1440.72 1246.79 1444.12 1255.74 1442.2Z" stroke="url(#paint10_linear_2_2)" stroke-width="4"/>
<path opacity="0.173913" d="M1208.5 1427.83L1517.71 1377.59C1524.18 1376.54 1529.96 1372.9 1533.66 1367.57L1759.63 1041.31C1762.76 1036.79 1764.16 1031.38 1763.58 1026.04L1725.81 675.945C1724.95 668.011 1719.85 661.206 1712.38 658.035L1450.83 546.996C1443.37 543.826 1434.64 544.76 1427.86 549.454L1128.88 756.576C1124.32 759.736 1121.02 764.344 1119.58 769.576L1015.42 1147.56C1013.72 1153.73 1014.74 1160.26 1018.24 1165.54L1185.52 1418.08C1190.43 1425.49 1199.42 1429.31 1208.5 1427.83Z" stroke="url(#paint11_linear_2_2)" stroke-width="4"/>
<path opacity="0.188406" d="M1162.3 1412.5L1472.61 1377.91C1479.16 1377.18 1485.16 1373.85 1489.16 1368.74L1732.24 1057.92C1735.63 1053.59 1737.34 1048.28 1737.06 1042.94L1719.1 695.923C1718.69 687.994 1713.96 680.978 1706.65 677.461L1452.81 555.373C1445.49 551.856 1436.68 552.358 1429.62 556.694L1120.63 746.466C1115.88 749.382 1112.32 753.799 1110.58 758.926L985.785 1126.63C983.73 1132.68 984.388 1139.22 987.598 1144.64L1139.8 1401.68C1144.3 1409.29 1153.11 1413.52 1162.3 1412.5Z" stroke="url(#paint12_linear_2_2)" stroke-width="4"/>
<path opacity="0.202899" d="M1117.2 1396.26L1427.63 1377.2C1434.23 1376.79 1440.43 1373.78 1444.73 1368.89L1703.86 1074.12C1707.5 1069.99 1709.5 1064.81 1709.53 1059.5L1711.05 716.432C1711.09 708.527 1706.73 701.313 1699.58 697.454L1454.09 564.823C1446.94 560.963 1438.07 561.029 1430.75 564.996L1112.87 737.157C1107.95 739.82 1104.14 744.026 1102.11 749.027L957.443 1105.64C955.046 1111.55 955.339 1118.07 958.251 1123.61L1095.21 1384.38C1099.3 1392.18 1107.92 1396.83 1117.2 1396.26Z" stroke="url(#paint13_linear_2_2)" stroke-width="4"/>
<path opacity="0.217391" d="M1073.25 1379.18L1382.83 1375.46C1389.46 1375.38 1395.84 1372.7 1400.41 1368.06L1674.53 1089.88C1678.39 1085.96 1680.68 1080.93 1681 1075.67L1701.63 737.397C1702.11 729.535 1698.13 722.136 1691.17 717.938L1454.62 575.299C1447.65 571.101 1438.74 570.726 1431.17 574.313L1105.54 728.664C1100.47 731.063 1096.43 735.043 1094.13 739.897L930.393 1084.65C927.665 1090.39 927.596 1096.88 930.202 1102.53L1051.8 1366.25C1055.48 1374.23 1063.88 1379.3 1073.25 1379.18Z" stroke="url(#paint14_linear_2_2)" stroke-width="4"/>
<path opacity="0.231884" d="M1030.48 1361.34L1338.26 1372.73C1344.91 1372.98 1351.44 1370.63 1356.26 1366.26L1644.27 1105.14C1648.33 1101.45 1650.9 1096.59 1651.51 1091.39L1690.81 758.743C1691.73 750.942 1688.14 743.371 1681.37 738.839L1454.34 586.75C1447.57 582.217 1438.64 581.399 1430.84 584.597L1098.59 720.996C1093.4 723.124 1089.15 726.863 1086.58 731.554L904.63 1063.72C901.583 1069.28 901.155 1075.71 903.449 1081.46L1009.61 1347.37C1012.87 1355.51 1021.05 1360.99 1030.48 1361.34Z" stroke="url(#paint15_linear_2_2)" stroke-width="4"/>
<path opacity="0.246377" d="M988.934 1342.81L1293.99 1369.03C1300.63 1369.6 1307.29 1367.59 1312.34 1363.5L1613.11 1119.87C1617.37 1116.43 1620.19 1111.74 1621.09 1106.64L1678.58 780.393C1679.94 772.672 1676.75 764.943 1670.19 760.081L1453.2 599.124C1446.64 594.262 1437.7 592.996 1429.71 595.797L1091.97 714.16C1086.68 716.013 1082.24 719.499 1079.42 724.01L880.141 1042.91C876.791 1048.27 876.01 1054.63 877.985 1060.46L968.696 1327.8C971.513 1336.1 979.459 1341.99 988.934 1342.81Z" stroke="url(#paint16_linear_2_2)" stroke-width="4"/>
<path opacity="0.26087" d="M948.642 1323.65L1250.07 1364.38C1256.68 1365.27 1263.44 1363.62 1268.71 1359.81L1581.1 1134.04C1585.52 1130.84 1588.59 1126.36 1589.76 1121.35L1664.93 802.273C1666.72 794.651 1663.94 786.776 1657.61 781.591L1451.14 612.365C1444.81 607.18 1435.9 605.465 1427.73 607.861L1085.64 708.163C1080.27 709.736 1075.66 712.961 1072.61 717.277L856.913 1022.3C853.275 1027.44 852.146 1033.71 853.799 1039.59L929.08 1307.62C931.452 1316.06 939.143 1322.37 948.642 1323.65Z" stroke="url(#paint17_linear_2_2)" stroke-width="4"/>
<path opacity="0.275362" d="M909.631 1303.95L1206.55 1358.81C1213.12 1360.03 1219.95 1358.72 1225.41 1355.21L1548.27 1147.6C1552.83 1144.67 1556.12 1140.39 1557.57 1135.5L1649.85 824.307C1652.08 816.802 1649.7 808.796 1643.62 803.293L1448.12 626.418C1442.04 620.915 1433.17 618.749 1424.84 620.733L1079.54 703.006C1074.12 704.299 1069.36 707.254 1066.09 711.365L834.927 1001.93C831.017 1006.84 829.55 1013 830.876 1018.93L890.795 1286.9C892.712 1295.48 900.13 1302.19 909.631 1303.95Z" stroke="url(#paint18_linear_2_2)" stroke-width="4"/>
<path opacity="0.289855" d="M871.924 1283.76L1163.48 1352.36C1169.98 1353.89 1176.87 1352.94 1182.5 1349.73L1514.65 1160.53C1519.34 1157.86 1522.84 1153.8 1524.55 1149.04L1633.35 846.42C1636 839.051 1634.04 830.928 1628.22 825.115L1444.1 641.222C1438.28 635.409 1429.48 632.792 1421.02 634.359L1073.63 698.692C1068.17 699.703 1063.29 702.384 1059.82 706.279L814.164 981.861C809.999 986.534 808.2 992.57 809.197 998.531L853.868 1265.73C855.32 1274.42 862.443 1281.53 871.924 1283.76Z" stroke="url(#paint19_linear_2_2)" stroke-width="4"/>
<path opacity="0.304348" d="M835.537 1263.17L1120.91 1345.06C1127.33 1346.91 1134.25 1346.31 1140.03 1343.41L1480.29 1172.8C1485.09 1170.39 1488.78 1166.56 1490.74 1161.94L1615.42 868.539C1618.49 861.324 1616.96 853.099 1611.42 846.985L1439.03 656.717C1433.49 650.602 1424.78 647.536 1416.21 648.68L1067.86 695.217C1062.38 695.949 1057.39 698.353 1053.73 702.024L794.597 962.161C790.194 966.581 788.074 972.478 788.739 978.454L818.318 1244.17C819.296 1252.96 826.101 1260.47 835.537 1263.17Z" stroke="url(#paint20_linear_2_2)" stroke-width="4"/>
<path opacity="0.318841" d="M800.482 1242.26L1078.9 1336.95C1085.21 1339.1 1092.14 1338.85 1098.05 1336.26L1445.23 1184.37C1450.12 1182.23 1453.99 1178.63 1456.19 1174.17L1596.08 890.591C1599.56 883.547 1598.47 875.237 1593.22 868.83L1432.87 672.84C1427.63 666.434 1419.05 662.92 1410.4 663.639L1062.17 692.579C1056.69 693.035 1051.62 695.159 1047.79 698.6L776.199 942.878C771.576 947.036 769.143 952.781 769.476 958.757L784.16 1222.31C784.654 1231.17 791.117 1239.07 800.482 1242.26Z" stroke="url(#paint21_linear_2_2)" stroke-width="4"/>
<path opacity="0.333333" d="M766.768 1221.08L1037.47 1328.06C1043.66 1330.5 1050.58 1330.6 1056.6 1328.33L1409.51 1195.22C1414.48 1193.35 1418.5 1189.99 1420.93 1185.69L1575.34 912.504C1579.22 905.649 1578.57 897.271 1573.64 890.584L1425.61 689.529C1420.69 682.842 1412.25 678.885 1403.55 679.176L1056.53 690.772C1051.06 690.955 1045.92 692.8 1041.94 696.007L758.939 924.067C754.112 927.957 751.378 933.536 751.379 939.496L751.405 1200.21C751.406 1209.13 757.501 1217.41 766.768 1221.08Z" stroke="url(#paint22_linear_2_2)" stroke-width="4"/>
<path opacity="0.347826" d="M734.396 1199.71L996.682 1318.43C1002.73 1321.16 1009.61 1321.61 1015.72 1319.65L1373.18 1205.33C1378.2 1203.73 1382.37 1200.61 1385.02 1196.48L1553.22 934.209C1557.48 927.56 1557.28 919.131 1552.7 912.177L1417.21 706.719C1412.62 699.764 1404.36 695.369 1395.62 695.231L1050.87 689.788C1045.45 689.703 1040.26 691.271 1036.14 694.24L742.782 905.779C737.769 909.394 734.744 914.797 734.413 920.727L720.056 1177.96C719.556 1186.92 725.257 1195.57 734.396 1199.71Z" stroke="url(#paint23_linear_2_2)" stroke-width="4"/>
<path opacity="0.362319" d="M703.365 1178.22L956.563 1308.1C962.45 1311.12 969.275 1311.9 975.454 1310.26L1336.29 1214.68C1341.34 1213.34 1345.64 1210.46 1348.5 1206.51L1529.73 955.637C1534.38 949.21 1534.63 940.752 1530.4 933.544L1407.64 724.343C1403.41 717.135 1395.36 712.312 1386.61 711.745L1045.17 689.618C1039.79 689.269 1034.56 690.563 1030.32 693.292L727.692 888.063C722.509 891.398 719.204 896.614 718.543 902.499L690.114 1155.63C689.106 1164.61 694.385 1173.61 703.365 1178.22Z" stroke="url(#paint24_linear_2_2)" stroke-width="4"/>
<path opacity="0.376812" d="M673.669 1156.67L917.151 1297.12C922.862 1300.41 929.613 1301.52 935.845 1300.2L1298.87 1223.23C1303.96 1222.15 1308.37 1219.52 1311.42 1215.76L1504.91 976.722C1509.92 970.534 1510.64 962.066 1506.79 954.621L1396.89 742.337C1393.03 734.892 1385.22 729.65 1376.49 728.655L1039.36 690.248C1034.05 689.643 1028.8 690.665 1024.45 693.154L713.628 870.965C708.292 874.018 704.717 879.037 703.728 884.863L661.572 1133.31C660.05 1142.27 664.879 1151.6 673.669 1156.67Z" stroke="url(#paint25_linear_2_2)" stroke-width="4"/>
<path opacity="0.391304" d="M645.297 1135.14L878.482 1285.52C884 1289.08 890.658 1290.52 896.926 1289.51L1260.99 1230.99C1266.08 1230.17 1270.6 1227.78 1273.83 1224.2L1478.79 997.401C1484.15 991.467 1485.34 983.01 1481.88 975.347L1384.94 760.633C1381.48 752.97 1373.93 747.322 1365.25 745.903L1033.41 691.667C1028.17 690.811 1022.92 691.566 1018.47 693.815L700.548 854.531C695.074 857.298 691.239 862.112 689.926 867.866L634.42 1111.05C632.38 1119.98 636.731 1129.62 645.297 1135.14Z" stroke="url(#paint26_linear_2_2)" stroke-width="4"/>
<path opacity="0.405797" d="M618.237 1113.69L840.584 1273.35C845.894 1277.17 852.441 1278.93 858.731 1278.23L1222.68 1237.92C1227.78 1237.36 1232.38 1235.22 1235.79 1231.83L1451.4 1017.61C1457.1 1011.95 1458.75 1003.52 1455.71 995.664L1371.79 779.167C1368.74 771.306 1361.49 765.266 1352.87 763.426L1027.28 693.858C1022.12 692.757 1016.88 693.249 1012.34 695.259L688.406 838.802C682.808 841.283 678.726 845.883 677.091 851.551L608.64 1088.93C606.082 1097.81 609.927 1107.73 618.237 1113.69Z" stroke="url(#paint27_linear_2_2)" stroke-width="4"/>
<path opacity="0.42029" d="M592.468 1092.38L803.486 1260.67C808.572 1264.72 814.993 1266.79 821.287 1266.4L1184.01 1244.03C1189.09 1243.71 1193.78 1241.81 1197.35 1238.62L1422.77 1037.29C1428.8 1031.91 1430.92 1023.55 1428.31 1015.51L1357.43 797.87C1354.81 789.835 1347.88 783.421 1339.36 781.166L1020.91 696.803C1015.85 695.464 1010.62 695.698 1006.01 697.469L677.155 823.818C671.448 826.01 667.127 830.39 665.176 835.959L584.213 1067.03C581.137 1075.82 584.449 1085.99 592.468 1092.38Z" stroke="url(#paint28_linear_2_2)" stroke-width="4"/>
<path opacity="0.434783" d="M567.97 1071.27L767.211 1247.5C772.06 1251.79 778.338 1254.16 784.624 1254.08L1145.01 1249.29C1150.07 1249.22 1154.83 1247.57 1158.57 1244.57L1392.96 1056.39C1399.29 1051.31 1401.89 1043.03 1399.72 1034.84L1341.86 816.679C1339.69 808.494 1333.1 801.725 1324.71 799.061L1014.26 700.484C1009.32 698.914 1004.11 698.894 999.439 700.428L666.744 809.615C660.941 811.519 656.392 815.671 654.129 821.129L561.113 1045.42C557.521 1054.08 560.277 1064.47 567.97 1071.27Z" stroke="url(#paint29_linear_2_2)" stroke-width="4"/>
<path opacity="0.449275" d="M544.719 1050.42L731.782 1233.9C736.379 1238.41 742.501 1241.08 748.765 1241.3L1105.74 1253.71C1110.78 1253.88 1115.6 1252.46 1119.48 1249.66L1362 1074.85C1368.63 1070.08 1371.69 1061.91 1369.98 1053.6L1325.08 835.529C1323.37 827.22 1317.16 820.119 1308.92 817.055L1007.31 704.879C1002.48 703.083 997.308 702.815 992.575 704.114L657.12 796.228C651.234 797.844 646.468 801.762 643.897 807.096L539.308 1024.15C535.208 1032.66 537.385 1043.23 544.719 1050.42Z" stroke="url(#paint30_linear_2_2)" stroke-width="4"/>
<path opacity="0.463768" d="M522.686 1029.89L697.216 1219.92C701.55 1224.64 707.501 1227.59 713.73 1228.11L1066.26 1257.27C1071.26 1257.68 1076.14 1256.5 1080.16 1253.9L1329.95 1092.63C1336.85 1088.18 1340.38 1080.14 1339.14 1071.74L1307.1 854.356C1305.87 845.952 1300.06 838.543 1291.99 835.088L999.996 709.967C995.289 707.951 990.163 707.437 985.381 708.504L648.231 783.686C642.273 785.015 637.299 788.693 634.427 793.892L518.765 1003.29C514.165 1011.62 515.744 1022.33 522.686 1029.89Z" stroke="url(#paint31_linear_2_2)" stroke-width="4"/>
<path opacity="0.478261" d="M501.84 1009.73L663.53 1205.61C667.587 1210.52 673.355 1213.75 679.538 1214.56L1026.61 1259.98C1031.57 1260.62 1036.49 1259.68 1040.66 1257.28L1296.85 1109.67C1304 1105.55 1308 1097.68 1307.24 1089.21L1287.94 873.098C1287.19 864.629 1281.8 856.939 1273.94 853.105L992.293 715.723C987.719 713.491 982.642 712.737 977.817 713.572L640.019 772.019C634.001 773.061 628.828 776.493 625.661 781.546L499.445 982.905C494.357 991.021 495.322 1001.83 501.84 1009.73Z" stroke="url(#paint32_linear_2_2)" stroke-width="4"/>
<path opacity="0.492754" d="M482.148 989.983L630.736 1191C634.505 1196.1 640.078 1199.59 646.203 1200.69L986.852 1261.83C991.76 1262.71 996.728 1262 1001.02 1259.8L1262.76 1125.93C1270.15 1122.15 1274.6 1114.48 1274.33 1105.97L1267.61 891.695C1267.35 883.192 1262.41 875.251 1254.77 871.049L984.163 722.12C979.726 719.679 974.705 718.687 969.844 719.291L632.427 761.252C626.36 762.006 620.996 765.188 617.541 770.082L481.304 963.048C475.745 970.922 476.085 981.78 482.148 989.983Z" stroke="url(#paint33_linear_2_2)" stroke-width="4"/>
<path opacity="0.507246" d="M463.575 970.71L598.844 1176.15C602.313 1181.42 607.679 1185.17 613.735 1186.56L947.032 1262.82C951.885 1263.93 956.89 1263.46 961.306 1261.47L1227.74 1141.37C1235.34 1137.94 1240.23 1130.49 1240.46 1121.98L1246.14 910.089C1246.37 901.585 1241.89 893.422 1234.51 888.867L975.569 729.133C971.278 726.486 966.318 725.259 961.425 725.634L625.395 751.405C619.289 751.873 613.744 754.799 610.007 759.524L464.297 943.772C458.285 951.374 457.994 962.233 463.575 970.71Z" stroke="url(#paint34_linear_2_2)" stroke-width="4"/>
<path opacity="0.521739" d="M446.082 951.954L567.86 1161.11C571.02 1166.54 576.167 1170.54 582.144 1172.21L907.203 1262.97C911.997 1264.31 917.035 1264.07 921.57 1262.29L1191.85 1155.95C1199.64 1152.89 1204.96 1145.68 1205.68 1137.21L1223.54 928.223C1224.26 919.752 1220.27 911.4 1213.16 906.506L966.479 736.733C962.34 733.884 957.447 732.424 952.527 732.571L618.863 742.498C612.728 742.68 607.011 745.344 603 749.891L448.374 925.129C441.932 932.43 441.008 943.239 446.082 951.954Z" stroke="url(#paint35_linear_2_2)" stroke-width="4"/>
<path opacity="0.536232" d="M429.628 933.759L537.789 1145.92C540.629 1151.49 545.546 1155.73 551.434 1157.68L867.419 1262.28C872.147 1263.84 877.214 1263.84 881.864 1262.26L1155.14 1169.65C1163.1 1166.95 1168.83 1160.02 1170.05 1151.61L1199.85 946.044C1201.07 937.639 1197.57 929.132 1190.76 923.917L956.86 744.889C952.88 741.842 948.058 740.152 943.116 740.069L612.769 734.545C606.614 734.442 600.735 736.839 596.456 741.196L433.483 907.163C426.636 914.136 425.084 924.845 429.628 933.759Z" stroke="url(#paint36_linear_2_2)" stroke-width="4"/>
<path opacity="0.550725" d="M414.172 916.168L508.631 1130.63C511.141 1136.33 515.819 1140.8 521.607 1143.02L827.73 1260.75C832.387 1262.55 837.479 1262.78 842.241 1261.41L1117.68 1182.42C1125.79 1180.1 1131.92 1173.46 1133.63 1165.16L1175.1 963.502C1176.81 955.197 1173.82 946.569 1167.32 941.05L946.684 753.571C942.869 750.33 938.125 748.409 933.164 748.096L607.052 727.56C600.885 727.172 594.852 729.296 590.315 733.454L419.571 889.917C412.347 896.536 410.176 907.095 414.172 916.168Z" stroke="url(#paint37_linear_2_2)" stroke-width="4"/>
<path opacity="0.565217" d="M399.669 899.221L480.385 1115.28C482.556 1121.1 486.984 1125.78 492.662 1128.29L788.187 1258.41C792.767 1260.43 797.881 1260.9 802.751 1259.74L1079.54 1194.25C1087.77 1192.31 1094.27 1186 1096.46 1177.82L1149.32 980.548C1151.51 972.376 1149.04 963.663 1142.88 957.859L935.921 762.748C932.279 759.315 927.617 757.163 922.642 756.619L601.646 721.55C595.478 720.877 589.3 722.723 584.514 726.671L406.58 873.429C399.011 879.672 396.235 890.03 399.669 899.221Z" stroke="url(#paint38_linear_2_2)" stroke-width="4"/>
<path opacity="0.57971" d="M386.073 882.956L453.045 1099.93C454.87 1105.84 459.036 1110.74 464.594 1113.51L748.839 1255.27C753.338 1257.51 758.469 1258.22 763.444 1257.28L1040.78 1205.11C1049.11 1203.55 1055.96 1197.58 1058.62 1189.58L1122.55 997.137C1125.21 989.132 1123.26 980.368 1117.46 974.3L924.546 772.385C921.085 768.763 916.511 766.38 911.525 765.603L596.49 716.522C590.33 715.562 584.016 717.125 578.989 720.854L394.453 857.734C386.571 863.58 383.212 873.69 386.073 882.956Z" stroke="url(#paint39_linear_2_2)" stroke-width="4"/>
<path opacity="0.594203" d="M373.335 867.409L426.604 1084.61C428.074 1090.6 431.97 1095.7 437.396 1098.74L709.737 1251.33C714.147 1253.8 719.291 1254.76 724.369 1254.04L1001.46 1214.99C1009.87 1213.8 1017.04 1208.21 1020.15 1200.4L1094.84 1013.23C1097.95 1005.42 1096.52 996.641 1091.1 990.331L912.535 782.449C909.263 778.64 904.782 776.026 899.79 775.013L591.517 712.477C585.375 711.231 578.935 712.504 573.677 716.005L383.129 842.862C374.97 848.294 371.054 858.109 373.335 867.409Z" stroke="url(#paint40_linear_2_2)" stroke-width="4"/>
<path opacity="0.608696" d="M361.405 852.611L401.052 1069.36C402.161 1075.42 405.775 1080.72 411.059 1084.02L670.927 1246.63C675.243 1249.33 680.396 1250.53 685.571 1250.04L961.662 1223.86C970.126 1223.06 977.585 1217.85 981.139 1210.27L1066.22 1028.78C1069.77 1021.2 1068.86 1012.44 1063.83 1005.91L899.865 792.905C896.791 788.912 892.411 786.064 887.417 784.812L586.665 709.413C580.55 707.88 573.995 708.858 568.517 712.121L372.548 828.84C364.15 833.842 359.706 843.322 361.405 852.611Z" stroke="url(#paint41_linear_2_2)" stroke-width="4"/>
<path opacity="0.623188" d="M350.231 838.595L376.376 1054.24C377.117 1060.34 380.439 1065.82 385.569 1069.39L632.458 1241.19C636.67 1244.12 641.828 1245.57 647.098 1245.31L921.446 1231.72C929.938 1231.3 937.66 1226.5 941.632 1219.18L1036.74 1043.76C1040.71 1036.44 1040.31 1027.73 1035.69 1021L886.516 803.717C883.65 799.543 879.377 796.46 874.387 794.964L581.869 707.327C575.792 705.506 569.132 706.183 563.445 709.199L362.649 815.691C354.049 820.252 349.111 829.359 350.231 838.595Z" stroke="url(#paint42_linear_2_2)" stroke-width="4"/>
<path opacity="0.637681" d="M339.76 825.388L352.561 1039.27C352.928 1045.41 355.949 1051.06 360.912 1054.89L594.374 1235.02C598.475 1238.19 603.631 1239.9 608.992 1239.87L880.882 1238.56C889.379 1238.52 897.332 1234.14 901.698 1227.1L1006.44 1058.14C1010.81 1051.09 1010.91 1042.47 1006.72 1035.57L872.471 814.849C869.824 810.497 865.667 807.176 860.685 805.433L577.066 706.209C571.037 704.1 564.285 704.47 558.4 707.231L353.37 803.434C344.607 807.546 339.213 816.246 339.76 825.388Z" stroke="url(#paint43_linear_2_2)" stroke-width="4"/>
<path opacity="0.652174" d="M329.937 813.015L329.587 1024.51C329.577 1030.66 332.286 1036.47 337.069 1040.56L556.72 1228.16C560.7 1231.56 565.848 1233.53 571.295 1233.75L840.04 1244.38C848.517 1244.71 856.667 1240.76 861.405 1234.02L975.376 1071.88C980.114 1065.14 980.716 1056.63 976.954 1049.59L857.713 826.264C855.296 821.737 851.264 818.176 846.297 816.18L572.193 706.049C566.223 703.651 559.391 703.708 553.321 706.206L344.649 792.084C335.761 795.742 329.952 804.006 329.937 813.015Z" stroke="url(#paint44_linear_2_2)" stroke-width="4"/>
<path opacity="0.666667" d="M320.704 801.499L307.436 1009.99C307.045 1016.13 309.431 1022.09 314.021 1026.43L519.538 1220.63C523.386 1224.27 528.518 1226.51 534.046 1226.98L798.987 1249.17C807.422 1249.88 815.735 1246.37 820.817 1239.95L943.593 1084.96C948.675 1078.54 949.76 1070.19 946.443 1063.02L842.229 837.923C840.054 833.227 836.158 829.423 831.214 827.169L567.186 706.831C561.289 704.143 554.391 703.882 548.148 706.109L336.424 781.653C327.449 784.856 321.266 792.661 320.704 801.499Z" stroke="url(#paint45_linear_2_2)" stroke-width="4"/>
<path opacity="0.681159" d="M312.002 790.861L286.085 995.739C285.31 1001.86 287.364 1007.95 291.746 1012.54L482.869 1212.47C486.574 1216.34 491.681 1218.87 497.284 1219.58L757.793 1252.94C766.16 1254.02 774.603 1250.95 780.003 1244.87L911.139 1097.35C916.539 1091.28 918.093 1083.1 915.227 1075.84L826.007 849.791C824.088 844.929 820.339 840.88 815.426 838.364L561.986 708.538C556.174 705.561 549.224 704.976 542.823 706.925L328.633 772.152C319.609 774.9 313.094 782.228 312.002 790.861Z" stroke="url(#paint46_linear_2_2)" stroke-width="4"/>
<path opacity="0.695652" d="M303.772 781.115L265.508 981.801C264.349 987.879 266.059 994.095 270.219 998.921L446.751 1203.7C450.3 1207.82 455.373 1210.62 461.043 1211.6L716.523 1255.71C724.801 1257.13 733.34 1254.51 739.029 1248.8L878.066 1109.05C883.754 1103.33 885.76 1095.35 883.352 1088.02L809.039 861.827C807.389 856.807 803.801 852.511 798.928 849.725L556.531 711.147C550.819 707.881 543.832 706.969 537.288 708.633L321.213 763.584C312.176 765.883 305.373 772.72 303.772 781.115Z" stroke="url(#paint47_linear_2_2)" stroke-width="4"/>
<path opacity="0.710145" d="M295.954 772.275L245.679 968.207C244.136 974.221 245.494 980.544 249.416 985.604L411.223 1194.36C414.6 1198.72 419.627 1201.82 425.357 1203.06L675.246 1257.47C683.412 1259.24 692.014 1257.07 697.962 1251.72L844.424 1120.02C850.372 1114.67 852.811 1106.92 850.865 1099.55L791.318 873.994C789.952 868.822 786.538 864.279 781.717 861.219L550.764 714.635C545.166 711.082 538.16 709.837 531.487 711.211L314.104 755.954C305.087 757.81 298.039 764.148 295.954 772.275Z" stroke="url(#paint48_linear_2_2)" stroke-width="4"/>
<path opacity="0.724638" d="M288.484 764.351L226.569 954.988C224.643 960.917 225.64 967.332 229.308 972.619L376.317 1184.49C379.508 1189.09 384.476 1192.48 390.256 1194.01L634.027 1258.24C642.059 1260.35 650.692 1258.62 656.87 1253.65L810.264 1130.26C816.443 1125.29 819.295 1117.79 817.813 1110.4L772.839 886.253C771.772 880.939 768.548 876.147 763.791 872.808L544.627 718.974C539.159 715.136 532.151 713.556 525.366 714.633L307.244 749.26C298.28 750.683 291.028 756.517 288.484 764.351Z" stroke="url(#paint49_linear_2_2)" stroke-width="4"/>
<path opacity="0.73913" d="M281.3 757.35L208.148 942.172C205.843 947.996 206.469 954.487 209.867 959.991L342.068 1174.13C345.056 1178.97 349.95 1182.66 355.769 1184.46L592.929 1258.04C600.807 1260.49 609.438 1259.19 615.818 1254.61L775.637 1139.75C782.017 1135.17 785.263 1127.93 784.245 1120.56L753.601 898.567C752.849 893.12 749.83 888.079 745.151 884.456L538.067 724.135C532.744 720.013 525.753 718.097 518.873 718.873L300.573 743.499C291.692 744.501 284.276 749.831 281.3 757.35Z" stroke="url(#paint50_linear_2_2)" stroke-width="4"/>
<path opacity="0.753623" d="M274.339 751.273L190.383 929.787C187.703 935.486 187.951 942.035 191.062 947.746L308.505 1163.3C311.271 1168.38 316.074 1172.38 321.921 1174.47L552.016 1256.9C559.72 1259.66 568.32 1258.79 574.873 1254.59L740.595 1148.49C747.148 1144.3 750.765 1137.34 750.209 1130L733.604 910.895C733.182 905.328 730.388 900.041 725.801 896.131L531.03 730.082C525.87 725.683 518.915 723.428 511.957 723.9L294.03 738.666C285.261 739.26 277.718 744.089 274.339 751.273Z" stroke="url(#paint51_linear_2_2)" stroke-width="4"/>
<path opacity="0.768116" d="M267.538 746.12L173.242 917.857C170.193 923.411 170.054 929.999 172.863 935.906L275.655 1152.06C278.18 1157.37 282.875 1161.69 288.736 1164.08L511.348 1254.83C518.859 1257.89 527.4 1257.44 534.098 1253.64L705.187 1156.47C711.886 1152.67 715.853 1146.01 715.755 1138.74L712.851 923.202C712.775 917.527 710.225 911.997 705.747 907.796L523.467 736.782C518.486 732.109 511.588 729.517 504.57 729.681L287.558 734.75C278.923 734.951 271.29 739.287 267.538 746.12Z" stroke="url(#paint52_linear_2_2)" stroke-width="4"/>
<path opacity="0.782609" d="M260.834 741.885L156.689 906.405C153.278 911.794 152.747 918.402 155.237 924.491L243.542 1140.45C245.807 1145.99 250.374 1150.62 256.235 1153.3L470.985 1251.86C478.286 1255.21 486.74 1255.17 493.557 1251.76L669.467 1163.68C676.284 1160.27 680.578 1153.93 680.932 1146.74L691.348 935.448C691.632 929.682 689.346 923.914 684.996 919.421L515.329 744.196C510.546 739.256 503.726 736.328 496.665 736.182L281.096 731.74C272.62 731.565 264.929 735.416 260.834 741.885Z" stroke="url(#paint53_linear_2_2)" stroke-width="4"/>
<path opacity="0.797101" d="M254.164 738.56L140.689 895.452C136.925 900.655 135.997 907.264 138.151 913.519L212.19 1128.51C214.173 1134.27 218.592 1139.21 224.436 1142.2L430.982 1248.03C438.057 1251.65 446.4 1252.01 453.31 1248.98L633.483 1170.13C640.393 1167.11 644.993 1161.09 645.791 1154.02L669.103 947.597C669.762 941.757 667.761 935.757 663.557 930.972L506.572 752.282C502.005 747.084 495.284 743.822 488.2 743.367L274.589 729.621C266.291 729.087 258.572 732.465 254.164 738.56Z" stroke="url(#paint54_linear_2_2)" stroke-width="4"/>
<path opacity="0.811594" d="M247.465 736.133L125.204 885.015C121.098 890.014 119.768 896.603 121.571 903.006L181.616 1116.28C183.296 1122.25 187.544 1127.5 193.353 1130.8L391.395 1243.35C398.228 1247.24 406.438 1247.98 413.417 1245.34L597.287 1175.82C604.266 1173.18 609.148 1167.49 610.381 1160.56L646.126 959.613C647.175 953.718 645.48 947.496 641.442 942.42L497.154 760.999C492.822 755.552 486.222 751.962 479.132 751.196L267.981 728.377C259.877 727.501 252.158 730.419 247.465 736.133Z" stroke="url(#paint55_linear_2_2)" stroke-width="4"/>
<path opacity="0.826087" d="M240.678 734.589L110.197 875.111C105.762 879.887 104.027 886.433 105.464 892.968L151.837 1103.81C153.193 1109.97 157.245 1115.54 163.002 1119.15L352.275 1237.88C358.853 1242.01 366.909 1243.12 373.935 1240.86L560.927 1180.74C567.953 1178.49 573.095 1173.14 574.751 1166.36L622.43 971.46C623.88 965.532 622.514 959.099 618.665 953.736L487.037 770.302C482.957 764.617 476.501 760.705 469.423 759.629L261.215 727.986C253.321 726.787 245.626 729.26 240.678 734.589Z" stroke="url(#paint56_linear_2_2)" stroke-width="4"/>
<path opacity="0.84058" d="M233.744 733.907L95.6305 865.752C90.8784 870.288 88.7375 876.769 89.7955 883.415L122.866 1091.14C123.876 1097.49 127.707 1103.37 133.392 1107.29L313.672 1231.65C319.983 1236 327.867 1237.46 334.917 1235.57L524.454 1184.92C531.504 1183.03 536.884 1178.03 538.952 1171.44L598.03 983.104C599.893 977.165 598.877 970.536 595.239 964.891L476.185 780.145C472.376 774.234 466.085 770.008 459.038 768.624L254.241 728.428C246.567 726.922 238.919 728.967 233.744 733.907Z" stroke="url(#paint57_linear_2_2)" stroke-width="4"/>
<path opacity="0.855072" d="M226.603 734.065L81.4654 856.951C76.4112 861.23 73.8646 867.622 74.5309 874.357L94.7105 1078.32C95.3549 1084.84 98.94 1091.01 104.532 1095.25L275.633 1224.69C281.666 1229.25 289.361 1231.04 296.416 1229.53L487.914 1188.34C494.969 1186.83 500.567 1182.18 503.032 1175.79L572.944 994.512C575.229 988.588 574.585 981.778 571.181 975.859L464.565 790.479C461.045 784.358 454.94 779.826 447.943 778.139L247.005 729.678C239.562 727.883 231.979 729.513 226.603 734.065Z" stroke="url(#paint58_linear_2_2)" stroke-width="4"/>
<path opacity="0.869565" d="M219.2 735.038L67.6632 848.715C62.3226 852.722 59.3722 859.003 59.636 865.804L67.3781 1065.41C67.6364 1072.06 70.9494 1078.53 76.4265 1083.07L238.2 1217.05C243.946 1221.81 251.438 1223.91 258.48 1222.76L451.356 1191.04C458.398 1189.88 464.191 1185.59 467.038 1179.42L547.192 1005.65C549.906 999.768 549.655 992.798 546.507 986.615L452.15 801.257C448.935 794.941 443.039 790.115 436.108 788.126L239.458 731.707C232.253 729.64 224.752 730.873 219.2 735.038Z" stroke="url(#paint59_linear_2_2)" stroke-width="4"/>
<path opacity="0.884058" d="M211.483 736.796L54.1849 841.053C48.5748 844.772 45.2242 850.918 45.0764 857.761L40.8713 1052.43C40.7248 1059.21 43.7394 1065.95 49.0802 1070.79L201.415 1208.76C206.867 1213.7 214.144 1216.11 221.155 1215.31L414.825 1193.01C421.837 1192.21 427.807 1188.27 431.019 1182.34L520.795 1016.49C523.943 1010.68 524.105 1003.57 521.237 997.135L438.915 812.427C436.021 805.934 430.353 800.826 423.507 798.542L231.551 734.486C224.591 732.164 217.186 733.016 211.483 736.796Z" stroke="url(#paint60_linear_2_2)" stroke-width="4"/>
<path opacity="0.898551" d="M203.399 739.308L40.9917 833.969C35.1298 837.386 31.3846 843.373 30.8179 850.233L15.1893 1039.44C14.6211 1046.32 17.3115 1053.32 22.4939 1058.46L165.316 1199.89C170.466 1204.99 177.517 1207.68 184.483 1207.22L378.367 1194.28C385.333 1193.82 391.459 1190.24 395.02 1184.56L493.778 1027.01C497.361 1021.29 497.955 1014.07 495.39 1007.4L424.837 823.94C422.279 817.289 416.859 811.913 410.114 809.338L223.239 737.984C216.528 735.422 209.231 735.909 203.399 739.308Z" stroke="url(#paint61_linear_2_2)" stroke-width="4"/>
<path opacity="0.913043" d="M194.901 742.54L28.0452 827.465C21.9501 830.567 17.8175 836.372 16.827 843.222L-9.67184 1026.49C-10.6767 1033.44 -8.33529 1040.68 -3.33352 1046.1L129.937 1190.46C134.78 1195.71 141.597 1198.68 148.503 1198.54L342.025 1194.86C348.931 1194.73 355.195 1191.52 359.086 1186.1L466.165 1037.17C470.184 1031.58 471.225 1024.27 468.985 1017.38L409.9 835.744C407.691 828.955 402.538 823.327 395.91 820.466L214.478 742.167C208.019 739.38 200.841 739.516 194.901 742.54Z" stroke="url(#paint62_linear_2_2)" stroke-width="4"/>
<path opacity="0.927536" d="M185.942 746.454L15.3068 821.542C8.99791 824.318 4.48726 829.917 3.07011 836.73L-33.7193 1013.61C-35.1732 1020.6 -33.2046 1028.07 -28.4052 1033.76L95.309 1180.54C99.8417 1185.91 106.416 1189.14 113.249 1189.33L305.841 1194.78C312.674 1194.97 319.058 1192.11 323.261 1186.98L437.984 1046.95C442.435 1041.52 443.939 1034.15 442.043 1027.07L394.089 847.787C392.242 840.882 387.372 835.018 380.877 831.879L205.227 746.999C199.021 744 191.971 743.801 185.942 746.454Z" stroke="url(#paint63_linear_2_2)" stroke-width="4"/>
<path opacity="0.942029" d="M176.481 751.012L2.73898 816.198C-3.76384 818.638 -8.64143 824.008 -10.4856 830.757L-56.9636 1000.86C-58.8763 1007.86 -57.3022 1015.52 -52.7268 1021.48L61.4601 1170.16C65.6794 1175.65 72.0053 1179.11 78.7534 1179.62L269.858 1194.04C276.606 1194.55 283.091 1192.05 287.587 1187.22L409.265 1056.33C414.141 1051.08 416.118 1043.69 414.588 1036.43L377.394 860.019C375.918 853.019 371.348 846.937 365.001 843.527L195.446 752.443C189.494 749.245 182.58 748.724 176.481 751.012Z" stroke="url(#paint64_linear_2_2)" stroke-width="4"/>
<path opacity="0.956522" d="M166.479 756.173L-9.69579 811.431C-16.372 813.525 -21.6035 818.643 -23.8728 825.301L-79.4182 988.27C-81.7962 995.247 -80.6368 1003.07 -76.3057 1009.28L28.4148 1159.38C32.319 1164.97 38.3914 1168.66 45.0436 1169.48L234.113 1192.68C240.765 1193.5 247.335 1191.36 252.105 1186.83L380.037 1065.28C385.328 1060.26 387.787 1052.87 386.639 1045.46L359.809 872.387C358.713 865.317 354.455 859.034 348.272 855.361L185.1 758.458C179.402 755.074 172.631 754.243 166.479 756.173Z" stroke="url(#paint65_linear_2_2)" stroke-width="4"/>
<path opacity="0.971014" d="M155.898 761.894L-22.0342 807.235C-28.8628 808.975 -34.4335 813.821 -37.1233 820.359L-101.1 975.885C-103.946 982.805 -103.219 990.772 -99.1515 997.214L-3.80575 1148.24C-0.217598 1153.93 5.59727 1157.83 12.1433 1158.94L198.645 1190.72C205.191 1191.84 211.829 1190.06 216.852 1185.84L350.331 1073.8C356.025 1069.02 358.971 1061.68 358.22 1054.15L341.329 884.842C340.619 877.724 336.688 871.259 330.681 867.332L174.154 765.004C168.71 761.445 162.087 760.317 155.898 761.894Z" stroke="url(#paint66_linear_2_2)" stroke-width="4"/>
<path opacity="0.985507" d="M144.708 768.13L-34.3118 803.604C-41.2714 804.983 -47.1649 809.534 -50.2683 815.927L-122.027 963.745C-125.342 970.574 -125.061 978.648 -121.276 985.309L-35.1838 1136.81C-31.9117 1142.57 -26.3577 1146.67 -19.9275 1148.07L163.489 1188.19C169.919 1189.59 176.609 1188.17 181.866 1184.28L320.18 1081.85C326.261 1077.35 329.696 1070.09 329.354 1062.46L321.957 897.332C321.637 890.191 318.042 883.564 312.225 879.391L162.578 772.039C157.387 768.315 150.918 766.9 144.708 768.13Z" stroke="url(#paint67_linear_2_2)" stroke-width="4"/>
<path d="M132.879 774.838L-46.5641 800.528C-53.6331 801.54 -59.831 805.778 -63.3387 811.998L-142.221 951.884C-146.001 958.588 -146.178 966.739 -142.692 973.6L-65.7055 1125.13C-62.7487 1130.95 -57.4584 1135.23 -51.1532 1136.92L128.679 1185.11C134.984 1186.8 141.71 1185.73 147.181 1182.17L289.616 1089.44C296.066 1085.24 299.988 1078.09 300.066 1070.39L301.695 909.809C301.767 902.668 298.519 895.899 292.903 891.488L150.345 779.518C145.406 775.639 139.096 773.948 132.879 774.838Z" stroke="url(#paint68_linear_2_2)" stroke-width="4"/>
</g>
<defs>
<linearGradient id="paint0_linear_2_2" x1="1760.36" y1="1532.23" x2="1631.52" y2="412.864" gradientUnits="userSpaceOnUse">
<stop stop-color="#FF1CF7"/>
<stop offset="1" stop-color="#00F0FF"/>
</linearGradient>
<linearGradient id="paint1_linear_2_2" x1="1705.85" y1="1529.98" x2="1631.79" y2="420.152" gradientUnits="userSpaceOnUse">
<stop stop-color="#FF1CF7"/>
<stop offset="1" stop-color="#00F0FF"/>
</linearGradient>
<linearGradient id="paint2_linear_2_2" x1="1651.67" y1="1526.24" x2="1630.77" y2="427.982" gradientUnits="userSpaceOnUse">
<stop stop-color="#FF1CF7"/>
<stop offset="1" stop-color="#00F0FF"/>
</linearGradient>
<linearGradient id="paint3_linear_2_2" x1="1597.9" y1="1521.04" x2="1628.58" y2="436.228" gradientUnits="userSpaceOnUse">
<stop stop-color="#FF1CF7"/>
<stop offset="1" stop-color="#00F0FF"/>
</linearGradient>
<linearGradient id="paint4_linear_2_2" x1="1544.65" y1="1514.42" x2="1625.34" y2="444.79" gradientUnits="userSpaceOnUse">
<stop stop-color="#FF1CF7"/>
<stop offset="1" stop-color="#00F0FF"/>
</linearGradient>
<linearGradient id="paint5_linear_2_2" x1="1491.98" y1="1506.43" x2="1621.19" y2="453.594" gradientUnits="userSpaceOnUse">
<stop stop-color="#FF1CF7"/>
<stop offset="1" stop-color="#00F0FF"/>
</linearGradient>
<linearGradient id="paint6_linear_2_2" x1="1439.98" y1="1497.11" x2="1616.25" y2="462.587" gradientUnits="userSpaceOnUse">
<stop stop-color="#FF1CF7"/>
<stop offset="1" stop-color="#00F0FF"/>
</linearGradient>
<linearGradient id="paint7_linear_2_2" x1="1388.73" y1="1486.5" x2="1610.66" y2="471.742" gradientUnits="userSpaceOnUse">
<stop stop-color="#FF1CF7"/>
<stop offset="1" stop-color="#00F0FF"/>
</linearGradient>
<linearGradient id="paint8_linear_2_2" x1="1338.29" y1="1474.67" x2="1604.53" y2="481.051" gradientUnits="userSpaceOnUse">
<stop stop-color="#FF1CF7"/>
<stop offset="1" stop-color="#00F0FF"/>
</linearGradient>
<linearGradient id="paint9_linear_2_2" x1="1288.75" y1="1461.67" x2="1598" y2="490.526" gradientUnits="userSpaceOnUse">
<stop stop-color="#FF1CF7"/>
<stop offset="1" stop-color="#00F0FF"/>
</linearGradient>
<linearGradient id="paint10_linear_2_2" x1="1240.15" y1="1447.57" x2="1591.17" y2="500.2" gradientUnits="userSpaceOnUse">
<stop stop-color="#FF1CF7"/>
<stop offset="1" stop-color="#00F0FF"/>
</linearGradient>
<linearGradient id="paint11_linear_2_2" x1="1192.57" y1="1432.41" x2="1584.13" y2="510.121" gradientUnits="userSpaceOnUse">
<stop stop-color="#FF1CF7"/>
<stop offset="1" stop-color="#00F0FF"/>
</linearGradient>
<linearGradient id="paint12_linear_2_2" x1="1146.07" y1="1416.28" x2="1576.97" y2="520.353" gradientUnits="userSpaceOnUse">
<stop stop-color="#FF1CF7"/>
<stop offset="1" stop-color="#00F0FF"/>
</linearGradient>
<linearGradient id="paint13_linear_2_2" x1="1100.69" y1="1399.22" x2="1569.76" y2="530.972" gradientUnits="userSpaceOnUse">
<stop stop-color="#FF1CF7"/>
<stop offset="1" stop-color="#00F0FF"/>
</linearGradient>
<linearGradient id="paint14_linear_2_2" x1="1056.48" y1="1381.32" x2="1562.54" y2="542.067" gradientUnits="userSpaceOnUse">
<stop stop-color="#FF1CF7"/>
<stop offset="1" stop-color="#00F0FF"/>
</linearGradient>
<linearGradient id="paint15_linear_2_2" x1="1013.48" y1="1362.64" x2="1555.36" y2="553.735" gradientUnits="userSpaceOnUse">
<stop stop-color="#FF1CF7"/>
<stop offset="1" stop-color="#00F0FF"/>
</linearGradient>
<linearGradient id="paint16_linear_2_2" x1="971.746" y1="1343.25" x2="1548.22" y2="566.081" gradientUnits="userSpaceOnUse">
<stop stop-color="#FF1CF7"/>
<stop offset="1" stop-color="#00F0FF"/>
</linearGradient>
<linearGradient id="paint17_linear_2_2" x1="931.3" y1="1323.23" x2="1541.11" y2="579.212" gradientUnits="userSpaceOnUse">
<stop stop-color="#FF1CF7"/>
<stop offset="1" stop-color="#00F0FF"/>
</linearGradient>
<linearGradient id="paint18_linear_2_2" x1="892.174" y1="1302.65" x2="1534.01" y2="593.238" gradientUnits="userSpaceOnUse">
<stop stop-color="#FF1CF7"/>
<stop offset="1" stop-color="#00F0FF"/>
</linearGradient>
<linearGradient id="paint19_linear_2_2" x1="854.393" y1="1281.58" x2="1526.86" y2="608.268" gradientUnits="userSpaceOnUse">
<stop stop-color="#FF1CF7"/>
<stop offset="1" stop-color="#00F0FF"/>
</linearGradient>
<linearGradient id="paint20_linear_2_2" x1="817.978" y1="1260.1" x2="1519.58" y2="624.402" gradientUnits="userSpaceOnUse">
<stop stop-color="#FF1CF7"/>
<stop offset="1" stop-color="#00F0FF"/>
</linearGradient>
<linearGradient id="paint21_linear_2_2" x1="782.944" y1="1238.28" x2="1512.08" y2="641.736" gradientUnits="userSpaceOnUse">
<stop stop-color="#FF1CF7"/>
<stop offset="1" stop-color="#00F0FF"/>
</linearGradient>
<linearGradient id="paint22_linear_2_2" x1="749.301" y1="1216.2" x2="1504.23" y2="660.35" gradientUnits="userSpaceOnUse">
<stop stop-color="#FF1CF7"/>
<stop offset="1" stop-color="#00F0FF"/>
</linearGradient>
<linearGradient id="paint23_linear_2_2" x1="717.056" y1="1193.93" x2="1495.9" y2="680.31" gradientUnits="userSpaceOnUse">
<stop stop-color="#FF1CF7"/>
<stop offset="1" stop-color="#00F0FF"/>
</linearGradient>
<linearGradient id="paint24_linear_2_2" x1="686.21" y1="1171.53" x2="1486.91" y2="701.657" gradientUnits="userSpaceOnUse">
<stop stop-color="#FF1CF7"/>
<stop offset="1" stop-color="#00F0FF"/>
</linearGradient>
<linearGradient id="paint25_linear_2_2" x1="656.758" y1="1149.1" x2="1477.09" y2="724.411" gradientUnits="userSpaceOnUse">
<stop stop-color="#FF1CF7"/>
<stop offset="1" stop-color="#00F0FF"/>
</linearGradient>
<linearGradient id="paint26_linear_2_2" x1="628.695" y1="1126.68" x2="1466.24" y2="748.563" gradientUnits="userSpaceOnUse">
<stop stop-color="#FF1CF7"/>
<stop offset="1" stop-color="#00F0FF"/>
</linearGradient>
<linearGradient id="paint27_linear_2_2" x1="602.006" y1="1104.37" x2="1454.16" y2="774.071" gradientUnits="userSpaceOnUse">
<stop stop-color="#FF1CF7"/>
<stop offset="1" stop-color="#00F0FF"/>
</linearGradient>
<linearGradient id="paint28_linear_2_2" x1="576.676" y1="1082.22" x2="1440.64" y2="800.857" gradientUnits="userSpaceOnUse">
<stop stop-color="#FF1CF7"/>
<stop offset="1" stop-color="#00F0FF"/>
</linearGradient>
<linearGradient id="paint29_linear_2_2" x1="552.682" y1="1060.3" x2="1425.49" y2="828.809" gradientUnits="userSpaceOnUse">
<stop stop-color="#FF1CF7"/>
<stop offset="1" stop-color="#00F0FF"/>
</linearGradient>
<linearGradient id="paint30_linear_2_2" x1="530.001" y1="1038.67" x2="1408.5" y2="857.777" gradientUnits="userSpaceOnUse">
<stop stop-color="#FF1CF7"/>
<stop offset="1" stop-color="#00F0FF"/>
</linearGradient>
<linearGradient id="paint31_linear_2_2" x1="508.604" y1="1017.4" x2="1389.5" y2="887.572" gradientUnits="userSpaceOnUse">
<stop stop-color="#FF1CF7"/>
<stop offset="1" stop-color="#00F0FF"/>
</linearGradient>
<linearGradient id="paint32_linear_2_2" x1="488.456" y1="996.547" x2="1368.34" y2="917.973" gradientUnits="userSpaceOnUse">
<stop stop-color="#FF1CF7"/>
<stop offset="1" stop-color="#00F0FF"/>
</linearGradient>
<linearGradient id="paint33_linear_2_2" x1="469.523" y1="976.17" x2="1344.89" y2="948.728" gradientUnits="userSpaceOnUse">
<stop stop-color="#FF1CF7"/>
<stop offset="1" stop-color="#00F0FF"/>
</linearGradient>
<linearGradient id="paint34_linear_2_2" x1="451.764" y1="956.323" x2="1319.07" y2="979.561" gradientUnits="userSpaceOnUse">
<stop stop-color="#FF1CF7"/>
<stop offset="1" stop-color="#00F0FF"/>
</linearGradient>
<linearGradient id="paint35_linear_2_2" x1="435.135" y1="937.057" x2="1290.84" y2="1010.18" gradientUnits="userSpaceOnUse">
<stop stop-color="#FF1CF7"/>
<stop offset="1" stop-color="#00F0FF"/>
</linearGradient>
<linearGradient id="paint36_linear_2_2" x1="419.591" y1="918.422" x2="1260.19" y2="1040.27" gradientUnits="userSpaceOnUse">
<stop stop-color="#FF1CF7"/>
<stop offset="1" stop-color="#00F0FF"/>
</linearGradient>
<linearGradient id="paint37_linear_2_2" x1="405.083" y1="900.464" x2="1227.2" y2="1069.54" gradientUnits="userSpaceOnUse">
<stop stop-color="#FF1CF7"/>
<stop offset="1" stop-color="#00F0FF"/>
</linearGradient>
<linearGradient id="paint38_linear_2_2" x1="391.559" y1="883.226" x2="1191.95" y2="1097.69" gradientUnits="userSpaceOnUse">
<stop stop-color="#FF1CF7"/>
<stop offset="1" stop-color="#00F0FF"/>
</linearGradient>
<linearGradient id="paint39_linear_2_2" x1="378.964" y1="866.747" x2="1154.6" y2="1124.44" gradientUnits="userSpaceOnUse">
<stop stop-color="#FF1CF7"/>
<stop offset="1" stop-color="#00F0FF"/>
</linearGradient>
<linearGradient id="paint40_linear_2_2" x1="367.243" y1="851.064" x2="1115.33" y2="1149.55" gradientUnits="userSpaceOnUse">
<stop stop-color="#FF1CF7"/>
<stop offset="1" stop-color="#00F0FF"/>
</linearGradient>
<linearGradient id="paint41_linear_2_2" x1="356.337" y1="836.209" x2="1074.37" y2="1172.8" gradientUnits="userSpaceOnUse">
<stop stop-color="#FF1CF7"/>
<stop offset="1" stop-color="#00F0FF"/>
</linearGradient>
<linearGradient id="paint42_linear_2_2" x1="346.185" y1="822.211" x2="1031.97" y2="1194.02" gradientUnits="userSpaceOnUse">
<stop stop-color="#FF1CF7"/>
<stop offset="1" stop-color="#00F0FF"/>
</linearGradient>
<linearGradient id="paint43_linear_2_2" x1="336.728" y1="809.096" x2="988.397" y2="1213.08" gradientUnits="userSpaceOnUse">
<stop stop-color="#FF1CF7"/>
<stop offset="1" stop-color="#00F0FF"/>
</linearGradient>
<linearGradient id="paint44_linear_2_2" x1="327.901" y1="796.886" x2="943.94" y2="1229.89" gradientUnits="userSpaceOnUse">
<stop stop-color="#FF1CF7"/>
<stop offset="1" stop-color="#00F0FF"/>
</linearGradient>
<linearGradient id="paint45_linear_2_2" x1="319.64" y1="785.599" x2="898.875" y2="1244.43" gradientUnits="userSpaceOnUse">
<stop stop-color="#FF1CF7"/>
<stop offset="1" stop-color="#00F0FF"/>
</linearGradient>
<linearGradient id="paint46_linear_2_2" x1="311.883" y1="775.249" x2="853.478" y2="1256.7" gradientUnits="userSpaceOnUse">
<stop stop-color="#FF1CF7"/>
<stop offset="1" stop-color="#00F0FF"/>
</linearGradient>
<linearGradient id="paint47_linear_2_2" x1="304.562" y1="765.849" x2="808.007" y2="1266.74" gradientUnits="userSpaceOnUse">
<stop stop-color="#FF1CF7"/>
<stop offset="1" stop-color="#00F0FF"/>
</linearGradient>
<linearGradient id="paint48_linear_2_2" x1="297.613" y1="757.405" x2="762.702" y2="1274.64" gradientUnits="userSpaceOnUse">
<stop stop-color="#FF1CF7"/>
<stop offset="1" stop-color="#00F0FF"/>
</linearGradient>
<linearGradient id="paint49_linear_2_2" x1="290.971" y1="749.921" x2="717.776" y2="1280.51" gradientUnits="userSpaceOnUse">
<stop stop-color="#FF1CF7"/>
<stop offset="1" stop-color="#00F0FF"/>
</linearGradient>
<linearGradient id="paint50_linear_2_2" x1="284.57" y1="743.398" x2="673.412" y2="1284.48" gradientUnits="userSpaceOnUse">
<stop stop-color="#FF1CF7"/>
<stop offset="1" stop-color="#00F0FF"/>
</linearGradient>
<linearGradient id="paint51_linear_2_2" x1="278.345" y1="737.831" x2="629.766" y2="1286.71" gradientUnits="userSpaceOnUse">
<stop stop-color="#FF1CF7"/>
<stop offset="1" stop-color="#00F0FF"/>
</linearGradient>
<linearGradient id="paint52_linear_2_2" x1="272.232" y1="733.215" x2="586.961" y2="1287.37" gradientUnits="userSpaceOnUse">
<stop stop-color="#FF1CF7"/>
<stop offset="1" stop-color="#00F0FF"/>
</linearGradient>
<linearGradient id="paint53_linear_2_2" x1="266.169" y1="729.54" x2="545.091" y2="1286.61" gradientUnits="userSpaceOnUse">
<stop stop-color="#FF1CF7"/>
<stop offset="1" stop-color="#00F0FF"/>
</linearGradient>
<linearGradient id="paint54_linear_2_2" x1="260.093" y1="726.791" x2="504.22" y2="1284.62" gradientUnits="userSpaceOnUse">
<stop stop-color="#FF1CF7"/>
<stop offset="1" stop-color="#00F0FF"/>
</linearGradient>
<linearGradient id="paint55_linear_2_2" x1="253.942" y1="724.952" x2="464.389" y2="1281.55" gradientUnits="userSpaceOnUse">
<stop stop-color="#FF1CF7"/>
<stop offset="1" stop-color="#00F0FF"/>
</linearGradient>
<linearGradient id="paint56_linear_2_2" x1="247.659" y1="724.004" x2="425.611" y2="1277.56" gradientUnits="userSpaceOnUse">
<stop stop-color="#FF1CF7"/>
<stop offset="1" stop-color="#00F0FF"/>
</linearGradient>
<linearGradient id="paint57_linear_2_2" x1="241.185" y1="723.924" x2="387.882" y2="1272.8" gradientUnits="userSpaceOnUse">
<stop stop-color="#FF1CF7"/>
<stop offset="1" stop-color="#00F0FF"/>
</linearGradient>
<linearGradient id="paint58_linear_2_2" x1="234.464" y1="724.687" x2="351.178" y2="1267.41" gradientUnits="userSpaceOnUse">
<stop stop-color="#FF1CF7"/>
<stop offset="1" stop-color="#00F0FF"/>
</linearGradient>
<linearGradient id="paint59_linear_2_2" x1="227.444" y1="726.264" x2="315.462" y2="1261.51" gradientUnits="userSpaceOnUse">
<stop stop-color="#FF1CF7"/>
<stop offset="1" stop-color="#00F0FF"/>
</linearGradient>
<linearGradient id="paint60_linear_2_2" x1="220.072" y1="728.625" x2="280.686" y2="1255.21" gradientUnits="userSpaceOnUse">
<stop stop-color="#FF1CF7"/>
<stop offset="1" stop-color="#00F0FF"/>
</linearGradient>
<linearGradient id="paint61_linear_2_2" x1="212.301" y1="731.737" x2="246.791" y2="1248.6" gradientUnits="userSpaceOnUse">
<stop stop-color="#FF1CF7"/>
<stop offset="1" stop-color="#00F0FF"/>
</linearGradient>
<linearGradient id="paint62_linear_2_2" x1="204.083" y1="735.565" x2="213.713" y2="1241.77" gradientUnits="userSpaceOnUse">
<stop stop-color="#FF1CF7"/>
<stop offset="1" stop-color="#00F0FF"/>
</linearGradient>
<linearGradient id="paint63_linear_2_2" x1="195.376" y1="740.07" x2="181.387" y2="1234.78" gradientUnits="userSpaceOnUse">
<stop stop-color="#FF1CF7"/>
<stop offset="1" stop-color="#00F0FF"/>
</linearGradient>
<linearGradient id="paint64_linear_2_2" x1="186.138" y1="745.215" x2="149.741" y2="1227.68" gradientUnits="userSpaceOnUse">
<stop stop-color="#FF1CF7"/>
<stop offset="1" stop-color="#00F0FF"/>
</linearGradient>
<linearGradient id="paint65_linear_2_2" x1="176.332" y1="750.958" x2="118.709" y2="1220.51" gradientUnits="userSpaceOnUse">
<stop stop-color="#FF1CF7"/>
<stop offset="1" stop-color="#00F0FF"/>
</linearGradient>
<linearGradient id="paint66_linear_2_2" x1="165.924" y1="757.256" x2="88.2223" y2="1213.29" gradientUnits="userSpaceOnUse">
<stop stop-color="#FF1CF7"/>
<stop offset="1" stop-color="#00F0FF"/>
</linearGradient>
<linearGradient id="paint67_linear_2_2" x1="154.881" y1="764.067" x2="58.2187" y2="1206.06" gradientUnits="userSpaceOnUse">
<stop stop-color="#FF1CF7"/>
<stop offset="1" stop-color="#00F0FF"/>
</linearGradient>
<linearGradient id="paint68_linear_2_2" x1="143.175" y1="771.344" x2="28.639" y2="1198.8" gradientUnits="userSpaceOnUse">
<stop stop-color="#FF1CF7"/>
<stop offset="1" stop-color="#00F0FF"/>
</linearGradient>
<clipPath id="clip0_2_2">
<rect width="1728" height="1041" fill="white"/>
</clipPath>
</defs>
</svg>

